<?xml version="1.0" encoding="UTF-8"?>
<!DOCTYPE svg PUBLIC "-//W3C//DTD SVG 1.1//EN" "http://www.w3.org/Graphics/SVG/1.1/DTD/svg11.dtd">
<!-- Creator: CorelDRAW 2020 (64-Bit Evaluation Version) -->
<svg xmlns="http://www.w3.org/2000/svg" xml:space="preserve" width="6.03319in" height="6.7543in" version="1.1" style="shape-rendering:geometricPrecision; text-rendering:geometricPrecision; image-rendering:optimizeQuality; fill-rule:evenodd; clip-rule:evenodd"
viewBox="0 0 2601.91 2912.91"
 xmlns:xlink="http://www.w3.org/1999/xlink"
 xmlns:xodm="http://www.corel.com/coreldraw/odm/2003">
 <defs>
  <style type="text/css">
   <![CDATA[
    .fil0 {fill:#2999FF}
   ]]>
  </style>
 </defs>
 <g id="Layer_x0020_1">
  <metadata id="CorelCorpID_0Corel-Layer"/>
  <path class="fil0" d="M930.85 215.48l0 -215.48 258.23 0 0 166.82c36.88,-3.15 74.18,-4.84 111.88,-4.84 37.7,0 74.99,1.7 111.88,4.84l0 -166.82 258.23 0 0 215.48c538.19,159.42 930.84,657.55 930.84,1247.45 0,34.21 -1.34,68.11 -3.93,101.66l-259.28 0c3.23,-33.45 4.94,-67.35 4.94,-101.66 0,-575.85 -466.83,-1042.68 -1042.68,-1042.68 -529.92,0 -967.49,395.33 -1033.92,907.15l249.13 0c64.35,-375.24 391.2,-660.8 784.79,-660.8 439.8,0 796.33,356.53 796.33,796.33 0,34.44 -2.19,68.37 -6.43,101.66l-1.74 0 1.74 12.1 -1319.94 0c52.27,244.73 269.7,428.28 530.04,428.28 173.27,0 327.55,-81.3 426.77,-207.84l545.48 530.15c-159.04,178.79 -366.65,313.42 -602.13,383.18l0 202.45 -258.23 0 0 -153.78c-36.88,3.14 -74.19,4.77 -111.88,4.77 -37.69,0 -75,-1.62 -111.88,-4.76l0 153.78 -258.23 0 0 -202.45c-423.28,-125.4 -756.51,-460.34 -879.5,-884.65l271.85 0c147.36,396.95 529.51,679.81 977.75,679.81 223.91,0 431.31,-70.61 601.21,-190.74l-185.79 -172.47c-120.94,74.12 -263.18,116.86 -415.42,116.86 -401.17,0 -733,-296.67 -788.21,-682.57l-272.68 0 0 -0.17 -235.08 0c-3.24,-37.44 -4.99,-75.3 -4.99,-113.58 0,-589.9 392.66,-1088.01 930.85,-1247.45zm-154.84 1111.92l1049.9 0c-60.18,-233.77 -272.39,-406.51 -524.95,-406.51 -252.56,0 -464.77,172.73 -524.95,406.51z"/>
 </g>
</svg>
